%TF.GenerationSoftware,KiCad,Pcbnew,5.1.7-a382d34a8~88~ubuntu18.04.1*%
%TF.CreationDate,2022-12-01T09:52:47-05:00*%
%TF.ProjectId,Global_Val_Sen_Tem,476c6f62-616c-45f5-9661-6c5f53656e5f,rev?*%
%TF.SameCoordinates,Original*%
%TF.FileFunction,Legend,Bot*%
%TF.FilePolarity,Positive*%
%FSLAX46Y46*%
G04 Gerber Fmt 4.6, Leading zero omitted, Abs format (unit mm)*
G04 Created by KiCad (PCBNEW 5.1.7-a382d34a8~88~ubuntu18.04.1) date 2022-12-01 09:52:47*
%MOMM*%
%LPD*%
G01*
G04 APERTURE LIST*
%ADD10C,0.120000*%
%ADD11O,1.600000X2.400000*%
%ADD12R,1.600000X2.400000*%
%ADD13R,6.000000X7.000000*%
%ADD14O,1.350000X1.350000*%
%ADD15R,1.350000X1.350000*%
%ADD16C,2.200000*%
G04 APERTURE END LIST*
D10*
%TO.C,Termocupla*%
X156500000Y-42800000D02*
G75*
G03*
X156500000Y-42800000I-2500000J0D01*
G01*
X145500000Y-48300000D02*
X162500000Y-48300000D01*
X162500000Y-48300000D02*
X162500000Y-35600000D01*
X145500000Y-35600000D02*
X162500000Y-35600000D01*
X145500000Y-48300000D02*
X145500000Y-35600000D01*
%TD*%
%LPC*%
D11*
%TO.C,IC3*%
X161105000Y-70970000D03*
X145865000Y-63350000D03*
X158565000Y-70970000D03*
X148405000Y-63350000D03*
X156025000Y-70970000D03*
X150945000Y-63350000D03*
X153485000Y-70970000D03*
X153485000Y-63350000D03*
X150945000Y-70970000D03*
X156025000Y-63350000D03*
X148405000Y-70970000D03*
X158565000Y-63350000D03*
X145865000Y-70970000D03*
D12*
X161105000Y-63350000D03*
%TD*%
D13*
%TO.C,Termocupla*%
X150000000Y-53000000D03*
X158000000Y-53000000D03*
%TD*%
D14*
%TO.C,JI_temp*%
X166500000Y-68500000D03*
X166500000Y-66500000D03*
X166500000Y-64500000D03*
X166500000Y-62500000D03*
X166500000Y-60500000D03*
X166500000Y-58500000D03*
X166500000Y-56500000D03*
X166500000Y-54500000D03*
X166500000Y-52500000D03*
X166500000Y-50500000D03*
X166500000Y-48500000D03*
D15*
X166500000Y-46500000D03*
%TD*%
D14*
%TO.C,JD_temp*%
X141500000Y-68500000D03*
X141500000Y-66500000D03*
X141500000Y-64500000D03*
X141500000Y-62500000D03*
X141500000Y-60500000D03*
X141500000Y-58500000D03*
X141500000Y-56500000D03*
X141500000Y-54500000D03*
X141500000Y-52500000D03*
X141500000Y-50500000D03*
X141500000Y-48500000D03*
D15*
X141500000Y-46500000D03*
%TD*%
D16*
%TO.C,Hrs4*%
X165850000Y-42150000D03*
%TD*%
%TO.C,His4*%
X142150000Y-42150000D03*
%TD*%
%TO.C,Hid4*%
X142150000Y-76850000D03*
%TD*%
%TO.C,Hdd4*%
X165850000Y-76850000D03*
%TD*%
M02*
