M48
; DRILL file {KiCad 5.1.7-a382d34a8~88~ubuntu18.04.1} date Thu Dec  1 10:03:59 2022
; FORMAT={-:-/ absolute / metric / decimal}
; #@! TF.CreationDate,2022-12-01T10:03:59-05:00
; #@! TF.GenerationSoftware,Kicad,Pcbnew,5.1.7-a382d34a8~88~ubuntu18.04.1
; #@! TF.FileFunction,Plated,1,2,PTH
FMAT,2
METRIC
T1C0.400
T2C0.800
T3C2.900
%
G90
G05
T1
X148.0Y-75.9
X149.7Y-77.4
X154.77Y-76.162
X158.06Y-66.93
X162.06Y-66.93
T2
X150.95Y-60.975
X159.725Y-59.45
X163.75Y-62.1
X166.85Y-74.275
X141.5Y-46.5
X141.5Y-48.5
X141.5Y-50.5
X141.5Y-52.5
X141.5Y-54.5
X141.5Y-56.5
X141.5Y-58.5
X141.5Y-60.5
X141.5Y-62.5
X141.5Y-64.5
X141.5Y-66.5
X141.5Y-68.5
X145.865Y-63.35
X145.865Y-70.97
X148.405Y-63.35
X148.405Y-70.97
X150.945Y-63.35
X150.945Y-70.97
X153.485Y-63.35
X153.485Y-70.97
X156.025Y-63.35
X156.025Y-70.97
X158.565Y-63.35
X158.565Y-70.97
X161.105Y-63.35
X161.105Y-70.97
X166.5Y-46.5
X166.5Y-48.5
X166.5Y-50.5
X166.5Y-52.5
X166.5Y-54.5
X166.5Y-56.5
X166.5Y-58.5
X166.5Y-60.5
X166.5Y-62.5
X166.5Y-64.5
X166.5Y-66.5
X166.5Y-68.5
T3
X150.0Y-53.0
X158.0Y-53.0
T0
M30
